<svg width="38" height="38" viewBox="0 0 38 38" fill="none" xmlns="http://www.w3.org/2000/svg">
<path d="M18.75 37.5C29.1053 37.5 37.5 29.1053 37.5 18.75C37.5 8.39466 29.1053 0 18.75 0C8.39466 0 0 8.39466 0 18.75C0 29.1053 8.39466 37.5 18.75 37.5Z" fill="white"/>
<path d="M27.1322 24.3042L13.6962 10.8682C13.1112 10.2822 12.1612 10.2822 11.5752 10.8682L10.8682 11.5752C10.2822 12.1612 10.2822 13.1112 10.8682 13.6962L24.3042 27.1322C24.8892 27.7182 25.8392 27.7182 26.4252 27.1322L27.1322 26.4252C27.7182 25.8392 27.7182 24.8892 27.1322 24.3042Z" fill="#F44336"/>
<path d="M24.3042 10.8682L10.8682 24.3042C10.2822 24.8892 10.2822 25.8392 10.8682 26.4252L11.5752 27.1322C12.1612 27.7182 13.1112 27.7182 13.6962 27.1322L27.1322 13.6962C27.7182 13.1112 27.7182 12.1612 27.1322 11.5752L26.4252 10.8682C25.8392 10.2822 24.8892 10.2822 24.3042 10.8682Z" fill="#F44336"/>
<path d="M12.6362 10.4292C12.2522 10.4292 11.8682 10.5752 11.5752 10.8682L10.8682 11.5752C10.2822 12.1612 10.2822 13.1112 10.8682 13.6962L16.1722 19.0002L19.0002 16.1722L13.6962 10.8682C13.4042 10.5752 13.0202 10.4292 12.6362 10.4292Z" fill="#D43A2F"/>
<path d="M19.0002 16.1724L16.1722 19.0004L10.8682 24.3044C10.2822 24.8894 10.2822 25.8394 10.8682 26.4254L11.5752 27.1324C11.8682 27.4254 12.2522 27.5724 12.6362 27.5724C13.0202 27.5724 13.4042 27.4254 13.6962 27.1324L19.0002 21.8284V16.1724Z" fill="#D43A2F"/>
</svg>
