<svg width="24" height="24" viewBox="0 0 24 24" fill="none" xmlns="http://www.w3.org/2000/svg">
<path d="M20.1322 17.3042L6.69621 3.86821C6.11121 3.28221 5.16121 3.28221 4.57521 3.86821L3.86821 4.57521C3.28221 5.16121 3.28221 6.11121 3.86821 6.69621L17.3042 20.1322C17.8892 20.7182 18.8392 20.7182 19.4252 20.1322L20.1322 19.4252C20.7182 18.8392 20.7182 17.8892 20.1322 17.3042Z" fill="#F44336"/>
<path d="M17.3042 3.86821L3.86821 17.3042C3.28221 17.8892 3.28221 18.8392 3.86821 19.4252L4.57521 20.1322C5.16121 20.7182 6.11121 20.7182 6.69621 20.1322L20.1322 6.69621C20.7182 6.11121 20.7182 5.16121 20.1322 4.57521L19.4252 3.86821C18.8392 3.28221 17.8892 3.28221 17.3042 3.86821Z" fill="#F44336"/>
<path d="M5.63621 3.4292C5.25221 3.4292 4.86821 3.5752 4.57521 3.8682L3.86821 4.5752C3.28221 5.1612 3.28221 6.1112 3.86821 6.6962L9.17221 12.0002L12.0002 9.1722L6.69621 3.8682C6.40421 3.5752 6.02021 3.4292 5.63621 3.4292Z" fill="#D43A2F"/>
<path d="M12.0002 9.17236L9.17221 12.0004L3.86821 17.3044C3.28221 17.8894 3.28221 18.8394 3.86821 19.4254L4.57521 20.1324C4.86821 20.4254 5.25221 20.5724 5.63621 20.5724C6.02021 20.5724 6.40421 20.4254 6.69621 20.1324L12.0002 14.8284V9.17236Z" fill="#D43A2F"/>
</svg>
