<svg width="40" height="34" viewBox="0 0 40 34" fill="none" xmlns="http://www.w3.org/2000/svg">
<path d="M0.686506 27.8506L7.56312 33.5324C8.39588 34.2204 9.62424 34.0684 10.2692 33.2148C11.2637 31.8985 12.0868 30.8091 12.0868 30.8091C12.0899 30.805 12.0928 30.8009 12.0958 30.7968C12.5198 30.2003 12.4379 29.3892 11.9236 28.8885C13.0814 27.6085 14.9438 27.7195 16.2597 28.2447L20.3341 29.8712C20.3427 29.8746 20.3516 29.8779 20.3604 29.881C21.787 30.3726 23.4448 30.3411 24.8782 29.6119L27.7032 28.3623C27.9991 28.2314 28.1328 27.8854 28.002 27.5895C27.871 27.2935 27.525 27.1598 27.229 27.2906L24.3927 28.5453C24.3902 28.5464 24.3862 28.5482 24.3837 28.5494C24.3753 28.5531 24.367 28.5572 24.3589 28.5614C22.8347 29.3426 21.3402 28.977 20.7551 28.7775L16.6941 27.1563C14.4852 26.2748 12.3129 26.6705 11.0116 28.1496C10.3416 27.6134 5.69019 23.89 5.04843 23.3763C6.65825 21.6258 8.6129 20.2091 10.7339 19.26C12.5916 18.4284 13.1743 18.3939 17.1587 18.3805H17.1609C18.3236 18.3989 18.8929 18.7209 23.931 20.7324C25.1665 21.2255 24.8891 22.3046 24.8224 22.5117C24.8215 22.5145 24.8211 22.5173 24.8202 22.5201C24.8186 22.5249 24.8166 22.5295 24.8152 22.5344C24.7859 22.6335 24.5013 23.4963 23.5469 23.2623C22.0383 22.8928 18.4444 22.0272 18.4082 22.0185C18.0934 21.9426 17.7773 22.1364 17.7014 22.451C17.6256 22.7656 17.8193 23.0821 18.1339 23.1578C18.17 23.1664 21.7618 24.0315 23.2682 24.4005C24.4248 24.6839 25.3721 24.1202 25.8174 23.1814L34.3935 20.6441C34.4067 20.6402 34.4197 20.6359 34.4325 20.631L34.4652 20.6185C35.2657 20.3059 36.33 20.1639 36.8599 21.2586C37.4255 22.5603 36.1337 23.3275 35.8297 23.4864L29.7422 26.1791C29.4462 26.31 29.3125 26.656 29.4434 26.9519C29.5744 27.2479 29.9204 27.3816 30.2163 27.2507L36.3201 24.5508C36.3304 24.5463 36.3405 24.5414 36.3505 24.5363C37.3298 24.034 38.7642 22.6773 37.9289 20.7781C37.9264 20.7724 37.9237 20.7667 37.921 20.761C37.2366 19.3321 35.7492 18.8592 34.039 19.5269L26.0615 21.8871C26.0186 21.0841 25.6204 20.145 24.3655 19.6442C19.2629 17.607 18.5928 17.2338 17.1932 17.2092C17.185 17.2089 17.1776 17.2087 17.1682 17.2088C13.1665 17.2221 12.3469 17.2543 10.2552 18.1905C7.96411 19.2157 5.8565 20.7507 4.12841 22.647C3.47579 22.1996 2.59381 22.35 2.12384 22.9735L0.387071 25.2549C-0.228127 26.0634 -0.0966501 27.2035 0.686506 27.8506ZM1.31951 25.9646L3.05777 23.6809C3.16018 23.5452 3.35416 23.5212 3.48665 23.6271C3.85538 23.9223 10.6447 29.3568 11.0835 29.708C11.2063 29.8064 11.2324 29.9831 11.1442 30.1127C10.7236 30.6694 10.3549 31.1574 9.33411 32.5085C9.08897 32.833 8.62337 32.8885 8.3094 32.6291L1.43287 26.9474C1.1364 26.7023 1.08664 26.2706 1.31951 25.9646Z" fill="white"/>
<path d="M1.5 24.5C1.1 24.5 0.666667 26.1667 0.5 27L8.5 33.5L10.5 32L11.5 29.5L4.5 23.5L3.5 23C3 23.5 1.9 24.5 1.5 24.5Z" fill="white"/>
<path d="M33.1415 4.56812C33.1402 4.56812 33.1384 4.56812 33.137 4.56812C32.7151 4.56812 32.3272 4.75787 32.0729 5.08871L31.4102 5.95131L31.3768 5.5054C31.3312 4.89356 30.8759 4.39422 30.2696 4.29102C28.8821 4.05479 27.3011 3.66872 25.5705 3.14367C24.9953 2.96931 24.3591 3.07485 23.8683 3.42576L22.6117 4.32454L22.6131 4.32126C23.0305 3.30179 22.5264 2.14053 21.4959 1.75024C20.751 1.46807 20.2048 1.24589 19.9455 1.13864C19.7784 1.06942 19.6089 1.02419 19.4416 1.00419C16.9796 0.709912 14.5248 1.64501 12.8986 2.48137C12.4488 2.71268 12.0635 3.02829 11.7568 3.40334C9.29082 1.71009 8.09019 0.268454 8.07472 0.249627C7.87005 -0.00043596 7.50132 -0.0376994 7.25079 0.166819C7.00018 0.371416 6.96276 0.740535 7.16751 0.991223C7.23509 1.07403 8.51618 2.62144 11.172 4.42648C10.9076 5.14269 10.9251 5.74172 10.98 6.50745C11.137 8.68451 12.5586 10.6086 14.6018 11.4094C17.1221 12.3972 19.535 13.0937 21.9783 13.5389C22.7939 13.6873 23.6068 13.3682 24.1005 12.7058L24.474 12.2048C24.5813 12.412 24.7011 12.6448 24.8242 12.8866C25.1773 13.5808 25.8804 14.0331 26.6591 14.0669C27.1289 14.0873 27.6121 14.0975 28.1016 14.0975C28.2864 14.0975 28.4722 14.0961 28.6585 14.0932C28.9821 14.0881 29.2402 13.8217 29.2351 13.4981C29.2301 13.1777 28.9688 12.9214 28.6494 12.9214C28.6464 12.9214 28.6432 12.9214 28.64 12.9215C27.9837 12.9319 27.3342 12.9233 26.71 12.8962C26.3528 12.8807 26.0304 12.6734 25.8686 12.3554C25.7091 12.0419 25.5548 11.7434 25.4256 11.495C25.2574 11.1716 24.94 10.9611 24.5766 10.9319C24.2132 10.9023 23.8659 11.0598 23.648 11.3522L23.161 12.0056C22.9351 12.3084 22.5625 12.4542 22.1883 12.3862C19.8203 11.9547 17.4785 11.2783 15.0293 10.3185C13.404 9.68148 12.2734 8.15251 12.1487 6.42355C12.0991 5.72953 12.1089 5.42908 12.1937 5.08902C17.8875 8.61123 24.5736 10.1015 31.3004 10.1015C32.3832 10.1015 33.4812 10.0633 34.5918 9.98685C34.9146 9.96459 35.1582 9.68484 35.1361 9.36204C35.1138 9.03925 34.8358 8.79591 34.5112 8.81778C26.9422 9.33939 19.1195 8.02744 12.7466 4.05127C12.9387 3.83949 13.1698 3.65966 13.4345 3.52357C14.9151 2.76205 17.1348 1.90875 19.3023 2.16787C19.3633 2.17521 19.4289 2.19318 19.4972 2.22146C19.7625 2.3313 20.3212 2.55855 21.0807 2.84627C21.4936 3.00266 21.6959 3.46849 21.5284 3.87745L21.2115 4.65131C21.0527 5.03942 21.167 5.47494 21.4959 5.73515C21.8247 5.99529 22.2749 6.00615 22.616 5.76226L24.5498 4.37906C24.7467 4.23821 25.001 4.19572 25.2302 4.26517C27.0076 4.80443 28.6368 5.20183 30.0727 5.44634C30.1469 5.459 30.2025 5.51915 30.208 5.59274L30.2552 6.22427C30.2896 6.6833 30.5969 7.06507 31.038 7.19678C31.4795 7.32842 31.9457 7.17764 32.2262 6.81243L33.0018 5.80288C33.0333 5.76195 33.0853 5.74 33.1448 5.74008C36.6985 5.74008 38.1934 7.69183 38.768 8.85551C38.8623 9.04652 38.8434 9.27228 38.7187 9.44477C38.0106 10.4246 36.2533 12.143 32.4392 12.6435C32.1048 12.6874 31.7398 12.7285 31.3234 12.769C31.0014 12.8004 30.7657 13.087 30.7971 13.409C30.8285 13.7311 31.115 13.9665 31.4371 13.9353C31.8665 13.8934 32.2442 13.8509 32.5917 13.8052C36.8419 13.2474 38.8497 11.2638 39.6684 10.1311C40.0482 9.60562 40.1058 8.91801 39.8187 8.33656C39.2593 7.20327 37.4894 4.56812 33.1415 4.56812Z" fill="white"/>
</svg>
