<svg width="40" height="40" viewBox="0 0 40 40" fill="none" xmlns="http://www.w3.org/2000/svg">
<g clip-path="url(#clip0_70_7749)">
<path d="M36.909 8.53992L36.9985 8.36104L36.9091 8.53993C37.2221 8.6964 37.4268 9.00914 37.4449 9.35859C37.4569 9.58828 37.7271 15.2735 35.7908 21.8728C34.6457 25.7751 32.963 29.1784 30.7921 31.9908C28.0573 35.5335 24.5434 38.139 20.3455 39.7365C20.234 39.7788 20.117 39.7999 19.9998 39.7999C19.8826 39.7999 19.7655 39.7788 19.6541 39.7364C15.4562 38.1389 11.9424 35.5335 9.20759 31.9908C7.03666 29.1784 5.35391 25.7752 4.20884 21.8728C2.27253 15.2735 2.54274 9.58828 2.55471 9.35863L2.55471 9.35859C2.57285 9.00914 2.77758 8.6964 3.09058 8.53993L3.09059 8.53992L19.5652 0.302585C19.5652 0.302582 19.5652 0.30258 19.5652 0.302577C19.8388 0.165808 20.1608 0.165808 20.4344 0.302577C20.4344 0.30258 20.4345 0.302582 20.4345 0.302585L36.909 8.53992ZM33.9065 21.3908L33.7147 21.3341L33.9065 21.3908C35.388 16.3766 35.5244 11.8142 35.5174 10.14L35.5169 10.0169L35.4068 9.96192L20.0893 2.30317L19.9998 2.25844L19.9104 2.30317L4.59272 9.96207L4.48268 10.0171L4.48217 10.1401C4.47525 11.8135 4.61145 16.3762 6.09318 21.3908C8.49303 29.5123 13.1428 35.0266 19.9252 37.7553L19.9998 37.7853L20.0745 37.7553C26.8569 35.0266 31.5065 29.5123 33.9065 21.3908Z" fill="white" stroke="#F79A26" stroke-width="0.4"/>
<path d="M32.1705 11.4113L32.1705 11.4114C32.5194 11.5857 32.7302 11.9518 32.7058 12.3411L32.7058 12.3411C32.579 14.3755 32.2179 17.4941 31.2191 20.8012C29.223 27.4107 25.5897 32.0412 20.4307 34.5919L20.4306 34.5919C20.295 34.659 20.1475 34.6926 20 34.6926C19.8525 34.6926 19.705 34.6591 19.5692 34.5919L19.4806 34.7712L19.5692 34.5919C14.4102 32.0412 10.7769 27.4107 8.7808 20.8012L8.58934 20.859L8.7808 20.8012C7.78188 17.4938 7.42092 14.3752 7.29419 12.341L7.29418 12.341C7.26989 11.9518 7.48071 11.5857 7.82954 11.4114L7.82956 11.4113L19.5653 5.54348C19.839 5.40674 20.161 5.4067 20.4346 5.54346L32.1705 11.4113ZM19.9053 32.5783L20 32.6293L20.0948 32.5783C24.4909 30.2132 27.602 26.0556 29.3585 20.2392C30.1853 17.5015 30.5503 14.8957 30.7093 12.9945L30.7206 12.8595L30.5995 12.799L20.0895 7.54396L20 7.49924L19.9106 7.54396L9.40068 12.799L9.27953 12.8595L9.29081 12.9945C9.44972 14.8955 9.81464 17.5013 10.6416 20.2392C12.3981 26.0556 15.5092 30.2132 19.9053 32.5783Z" fill="white" stroke="#F79A26" stroke-width="0.4"/>
<path d="M19.392 22.9424L19.392 22.9424L23.7728 18.08C23.7728 18.08 23.7728 18.08 23.7728 18.08C24.0031 17.8243 23.9796 17.4296 23.7207 17.2031C23.4672 16.9812 23.0823 17.0039 22.8566 17.2541L19.0885 21.432C19.0885 21.432 19.0885 21.432 19.0885 21.432C19.0084 21.5208 18.8716 21.5279 18.7827 21.448L18.7827 21.448L16.8159 19.6788L16.8159 19.6788C16.5504 19.44 16.1394 19.4803 15.9195 19.7552C15.72 20.0045 15.7406 20.3705 15.9761 20.5922L15.9761 20.5922L18.5111 22.9787L18.5112 22.9787C18.763 23.2157 19.1605 23.1994 19.392 22.9424Z" fill="white" stroke="white" stroke-width="0.4"/>
</g>
<defs>
<clipPath id="clip0_70_7749">
<rect width="40" height="40" fill="white"/>
</clipPath>
</defs>
</svg>
