<svg width="40" height="40" viewBox="0 0 40 40" fill="none" xmlns="http://www.w3.org/2000/svg">
<path d="M26.274 13.726C25.9 13.3519 25.3454 13.031 24.5613 12.9807C23.7898 12.9313 22.8359 13.1463 21.6514 13.7592C20.5122 14.3485 19.2732 15.2434 18.0781 16.3213L17.6872 16.6738L18.0594 17.0461L19.7826 18.7693L20.1162 19.1029L20.4686 18.7892C21.2697 18.0761 22.078 17.4725 22.8082 17.0418C22.9294 16.9704 23.0432 16.9067 23.1499 16.8499C23.0931 16.9565 23.0294 17.0704 22.9579 17.1915C22.5272 17.9219 21.9236 18.73 21.2105 19.5311L20.8968 19.8835L21.2304 20.2171L22.9536 21.9403L23.3259 22.3126L23.6785 21.9216C24.7564 20.7265 25.6512 19.4875 26.2406 18.3485L26.2406 18.3485C26.8535 17.1638 27.0685 16.21 27.019 15.4384C26.9688 14.6544 26.6479 14.0999 26.274 13.726ZM26.274 13.726L25.9203 14.0795L26.2739 13.7259C26.2739 13.726 26.2739 13.726 26.274 13.726ZM39.2901 34.149L39.2902 34.1492C39.4245 34.2833 39.5 34.4656 39.5 34.6557C39.5 34.8457 39.4245 35.028 39.2901 35.1624L35.1624 39.2901C35.0224 39.4301 34.8398 39.5 34.6557 39.5C34.4715 39.5 34.289 39.4301 34.1491 39.2902L34.149 39.2901L30.0869 35.228C28.2261 33.3671 27.1186 30.8304 27.0067 28.2064L26.9985 28.0118L26.8608 27.8741L25.0263 26.0397L24.6841 25.6975L24.3309 26.0283C19.8328 30.2424 14.7475 32.9235 11.1699 34.458C7.04525 36.227 4.05687 36.8785 3.9493 36.9016C3.89881 36.9124 3.84831 36.9177 3.79847 36.9177C3.61033 36.9177 3.42758 36.8435 3.29185 36.7078L3.29179 36.7077C3.11972 36.5356 3.04675 36.2882 3.09785 36.0505L3.09787 36.0504C3.1204 35.9455 3.77166 32.9563 5.54158 28.8296C7.07598 25.252 9.757 20.1668 13.9712 15.6686L14.302 15.3154L13.9598 14.9732L12.1255 13.1389L11.9878 13.0011L11.7933 12.9929C9.16925 12.881 6.63282 11.7739 4.77203 9.91307L0.70992 5.85097L0.709891 5.85094C0.430052 5.57114 0.430011 5.11752 0.70992 4.83761L0.709923 4.8376L4.83758 0.709878L4.83763 0.70982C4.97192 0.575484 5.15415 0.5 5.34425 0.5C5.53428 0.5 5.71657 0.575513 5.85093 0.709881L9.91304 4.77198L9.91305 4.77199C11.7739 6.63281 12.8815 9.16955 12.9933 11.7936L13.0016 11.9882L13.1393 12.1259L14.9732 13.9598L15.3154 14.302L15.6686 13.9711C20.1669 9.7568 25.2524 7.07554 28.8301 5.54107L28.6331 5.08155L28.8301 5.54107C32.9568 3.77114 35.946 3.11989 36.0509 3.09737L36.0511 3.09732C36.2887 3.0462 36.5361 3.11916 36.7082 3.29128C36.8803 3.46336 36.9533 3.71076 36.9022 3.9485L36.9022 3.94857C36.8796 4.05345 36.2285 7.04271 34.4585 11.1694C32.9241 14.7471 30.2428 19.8326 26.0284 24.3309L25.6975 24.6841L26.0397 25.0263L27.8746 26.8612L28.0123 26.9989L28.2068 27.0072C30.8308 27.119 33.3673 28.2262 35.2281 30.087L39.2901 34.149ZM37.0618 2.93773C36.7698 2.6457 36.3497 2.52164 35.9459 2.60851L35.5816 29.7335C33.6317 27.7835 30.9764 26.6248 28.2281 26.5076L26.3933 24.6728C30.6609 20.1177 33.37 14.9758 34.9181 11.3665C36.7041 7.2021 37.3638 4.18015 37.391 4.05359C37.4778 3.64984 37.3538 3.22976 37.0618 2.93773ZM16.8502 23.1492C16.907 23.0425 16.9707 22.9286 17.0422 22.8075L17.0422 22.8074C17.4727 22.0774 18.0761 21.2694 18.789 20.4685L19.1027 20.1161L18.7691 19.7825L17.0459 18.0593L16.6736 17.687L16.3211 18.078C15.2434 19.2729 14.3488 20.5117 13.7595 21.6507C13.1466 22.8353 12.9316 23.7892 12.9811 24.5607C13.0313 25.3447 13.3523 25.8992 13.7262 26.2731C14.1361 26.6832 14.759 27.0252 15.6546 27.0252C16.3863 27.0252 17.2719 26.7971 18.3488 26.2399C19.4878 25.6507 20.7266 24.7561 21.9215 23.6784L22.3125 23.3258L21.9402 22.9535L20.217 21.2303L19.8834 20.8967L19.5311 21.2104C18.7301 21.9232 17.922 22.5267 17.1919 22.9572C17.0707 23.0287 16.9569 23.0924 16.8502 23.1492Z" stroke="white"/>
</svg>
