<svg width="40" height="40" viewBox="0 0 40 40" fill="none" xmlns="http://www.w3.org/2000/svg">
<path d="M19.8843 14.3878C19.9898 15.1928 20.0738 16.0204 20.1387 16.8642L9.41862 27.5843C9.30668 26.79 9.21411 25.9706 9.14243 25.1303L19.8843 14.3878Z" stroke="white"/>
<path d="M14.6252 3C15.1479 3 15.7511 3.30936 16.3945 4.05868C16.9883 4.75022 17.5697 5.76573 18.0972 7.07954L9.17669 15.9956C9.53726 12.1503 10.3153 8.9854 11.2846 6.73102C11.8254 5.47332 12.416 4.52159 13.0082 3.89251C13.6039 3.25966 14.1541 3 14.6252 3Z" stroke="white"/>
<path d="M21.7262 11.6884L21.7263 11.6886C21.7719 11.9271 21.8131 12.1713 21.8533 12.4091C21.8616 12.4582 21.8699 12.5071 21.8781 12.5556C21.8896 12.6228 21.9012 12.6903 21.9128 12.7581C21.9325 12.8725 21.9524 12.9879 21.972 13.1045L21.9729 13.11L21.9729 13.11C22.0065 13.3244 22.0365 13.5448 22.0658 13.7597C22.077 13.8418 22.088 13.9231 22.0992 14.0029L22.0993 14.0042C22.1076 14.065 22.1168 14.1291 22.1262 14.1951C22.1439 14.3193 22.1625 14.45 22.1783 14.5773L22.1785 14.579C22.2079 14.8233 22.2329 15.0721 22.2574 15.3156C22.2637 15.3781 22.27 15.4403 22.2763 15.5019C22.284 15.5759 22.2932 15.6587 22.3027 15.744C22.3153 15.8568 22.3284 15.9739 22.339 16.0806L22.3395 16.0857L22.3395 16.0857C22.3626 16.3456 22.3808 16.6099 22.3986 16.8688C22.4029 16.9307 22.4071 16.9924 22.4114 17.0536C22.4157 17.1121 22.4206 17.1737 22.4255 17.2369C22.4355 17.3632 22.446 17.4963 22.4537 17.6261L21.7262 11.6884ZM21.7262 11.6884C21.7025 11.5643 21.6753 11.4381 21.6496 11.3189C21.6372 11.2615 21.6252 11.2057 21.6141 11.1525C21.6045 11.1062 21.5948 11.0595 21.5852 11.0126C21.5377 10.7822 21.4888 10.545 21.4355 10.314C21.4083 10.1956 21.3771 10.0741 21.3479 9.96003C21.3342 9.90668 21.3209 9.85494 21.3086 9.8059C21.294 9.74648 21.2792 9.68514 21.2641 9.62269C21.2331 9.49483 21.2011 9.36234 21.1675 9.2322C21.7414 7.24871 22.453 5.67025 23.2096 4.5929C23.9987 3.4692 24.7552 3 25.3752 3C25.9055 3 26.5363 3.33064 27.2119 4.13993C27.8799 4.9403 28.5335 6.14336 29.1069 7.71462C30.2521 10.8526 31.0439 15.3655 31.0439 20.7938C31.0439 24.3537 30.6814 27.7366 30.0399 30.5965C29.425 33.3377 28.5625 35.5593 27.5477 37H23.2138C22.2805 35.5818 21.5882 34.0186 21.1653 32.3737C21.1938 32.2624 21.2212 32.1492 21.2476 32.0403C21.2623 31.9792 21.2768 31.9195 21.291 31.8622L21.7262 11.6884ZM22.501 18.6912L22.5011 18.692C22.5032 18.7497 22.5066 18.8196 22.5102 18.8931C22.5151 18.9951 22.5203 19.1038 22.5231 19.1957L22.5231 19.1963C22.5382 19.7235 22.546 20.2548 22.5464 20.7902C22.5468 21.3263 22.5382 21.8597 22.5206 22.3905C22.5175 22.4961 22.512 22.6102 22.5067 22.7178L22.501 18.6912ZM22.501 18.6912C22.4993 18.6453 22.4975 18.5993 22.4957 18.5532M22.501 18.6912L22.4957 18.5532M22.274 26.1138L22.2738 26.1157C22.2665 26.1866 22.2592 26.2585 22.2519 26.331C22.2292 26.556 22.2059 26.787 22.1784 27.0124C22.1618 27.1484 22.142 27.2876 22.1231 27.4207C22.1131 27.4912 22.1034 27.5599 22.0944 27.6256C22.0867 27.6831 22.0789 27.7411 22.0711 27.7996C22.0412 28.0238 22.0105 28.254 21.9755 28.4793L21.9755 28.4796C21.954 28.6169 21.9292 28.7571 21.9056 28.8909C21.8934 28.9597 21.8815 29.0268 21.8706 29.0909L22.274 26.1138ZM22.274 26.1138C22.281 26.0427 22.2895 25.9649 22.2982 25.8842M22.274 26.1138L22.2982 25.8842M21.7288 29.9L21.7288 29.9002C21.701 30.0451 21.6697 30.1904 21.6398 30.3288C21.6267 30.3893 21.614 30.4484 21.6019 30.5056L21.1127 30.4025L21.6021 30.505C21.5906 30.5599 21.579 30.6156 21.5674 30.6718C21.5263 30.8696 21.484 31.0741 21.438 31.2725C21.4379 31.2727 21.4379 31.2728 21.4379 31.2729L20.9508 31.16C20.9184 31.3001 20.8836 31.4364 20.8486 31.573L21.7288 29.9ZM21.7288 29.9C21.7702 29.683 21.808 29.4599 21.8447 29.2432M21.7288 29.9L21.8447 29.2432M22.4957 18.5532C22.4839 18.2468 22.4719 17.9349 22.4537 17.6263L22.4957 18.5532ZM22.2982 25.8842C22.3118 25.7593 22.326 25.6279 22.337 25.505L22.2982 25.8842ZM21.8447 29.2432C21.8534 29.1921 21.862 29.1413 21.8705 29.0911L21.8447 29.2432ZM22.4909 23.0904C22.4932 23.03 22.4955 22.9698 22.4979 22.9099L22.337 25.5049C22.3596 25.2508 22.3773 24.9934 22.3946 24.7415C22.3988 24.6814 22.4029 24.6217 22.407 24.5624C22.4117 24.4976 22.417 24.4298 22.4225 24.3604C22.4327 24.2303 22.4433 24.0944 22.4512 23.9618C22.4685 23.6723 22.4798 23.3784 22.4909 23.0904ZM24.5797 28.9576C24.3687 29.1686 24.2502 29.4548 24.2502 29.7531V33.9788C24.2502 34.2771 24.3687 34.5633 24.5797 34.7742C24.7907 34.9852 25.0768 35.1038 25.3752 35.1038C25.6735 35.1038 25.9597 34.9852 26.1707 34.7742C26.3817 34.5633 26.5002 34.2771 26.5002 33.9788V29.7531C26.5002 29.4548 26.3817 29.1686 26.1707 28.9576C25.9597 28.7466 25.6735 28.6281 25.3752 28.6281C25.0768 28.6281 24.7907 28.7467 24.5797 28.9576Z" stroke="white"/>
<path d="M19.1367 8.51562L8.4823 19.1638C8.46668 19.6988 8.45605 20.24 8.45605 20.7938C8.45605 21.6337 8.47793 22.4631 8.51855 23.28L19.9692 11.8281C19.8023 10.9844 19.6129 10.1687 19.3973 9.39062C19.3123 9.09062 19.2261 8.79937 19.1367 8.51562Z" fill="white"/>
<path d="M20.271 22.3329L20.271 22.3334C20.2556 22.8822 20.229 23.4254 20.1961 23.9658L20.1959 23.9694C20.049 26.7099 19.6196 29.4279 18.9145 32.0802L18.9144 32.0802L18.912 32.09C18.4853 33.8358 17.7656 35.496 16.784 37H12.4527C11.3999 35.5044 10.5151 33.1655 9.89716 30.287L20.2843 19.9021C20.2904 20.1979 20.2939 20.4949 20.2939 20.7933C20.2935 21.3107 20.2859 21.8239 20.271 22.3329ZM13.8297 34.7742L14.1832 34.4206L13.8297 34.7742C14.0407 34.9852 14.3268 35.1037 14.6252 35.1037C14.9235 35.1037 15.2097 34.9852 15.4207 34.7742L15.0671 34.4206L15.4207 34.7742C15.6316 34.5632 15.7502 34.2771 15.7502 33.9787V29.7531C15.7502 29.4547 15.6316 29.1686 15.4207 28.9576C15.2097 28.7466 14.9235 28.6281 14.6252 28.6281C14.3268 28.6281 14.0407 28.7466 13.8297 28.9576C13.6187 29.1686 13.5002 29.4547 13.5002 29.7531V33.9787C13.5002 34.2771 13.6187 34.5632 13.8297 34.7742Z" stroke="white"/>
</svg>
