<svg width="40" height="40" viewBox="0 0 40 40" fill="none" xmlns="http://www.w3.org/2000/svg">
<g clip-path="url(#clip0_78_6235)">
<path d="M35.2 19.4736C33.9134 19.0692 33.0537 19.5248 32.559 19.9781C31.9726 20.5156 31.7603 21.1754 31.7515 21.2033L29.0996 29.6399L26.0442 30.8232L22.9707 31.1199L22.827 29.6855C24.1402 28.8477 25.0595 27.4459 25.2397 25.8235H25.8592C26.8284 25.8235 27.6169 25.035 27.6169 24.0657V23.4797C27.6169 22.7159 27.1271 22.0646 26.4451 21.8228V20.3548C26.4451 16.8008 23.5537 13.9094 19.9997 13.9094C18.5286 13.9094 17.0872 14.4234 15.9411 15.3568L16.6811 16.2655C17.6188 15.5019 18.7974 15.0813 19.9997 15.0813C22.9076 15.0813 25.2733 17.447 25.2733 20.3548V21.722H24.6872H19.9997C19.0304 21.722 18.2419 20.9335 18.2419 19.9642H17.07C17.07 20.9335 16.2815 21.722 15.3122 21.722H14.7263V20.3548C14.7263 19.1526 15.1468 17.974 15.9104 17.0361L15.0017 16.2962C14.0684 17.4424 13.5544 18.8838 13.5544 20.3547V21.8227C12.8724 22.0646 12.3825 22.7158 12.3825 23.4797V24.0656C12.3825 25.0349 13.171 25.8234 14.1403 25.8234H14.7596C14.9399 27.4459 15.8592 28.8477 17.1724 29.6855L17.0287 31.1199L13.9552 30.8232L10.8998 29.6399L8.24785 21.2032C8.2391 21.1754 8.02675 20.5156 7.44042 19.9781C6.94573 19.5247 6.08596 19.0691 4.79946 19.4736C3.38758 19.9174 2.59991 21.4272 3.04367 22.8393L6.3526 33.3657L11.5726 36.8062L12.8224 40H22.6757V38.8281H13.6221L12.5282 36.0325L7.34542 32.6167L5.14689 25.6226L8.11527 24.6896L9.95091 30.5292L13.6822 31.9742L17.0162 32.296C17.2705 33.7125 18.5111 34.7912 19.9997 34.7912C21.4883 34.7912 22.729 33.7125 22.9833 32.296L26.3174 31.9741L30.0487 30.5291L31.8843 24.6895L34.8525 25.6226L32.6541 32.6166L27.4713 36.0325L26.3773 38.8281H23.8475V39.9999H27.1771L28.4269 36.8061L33.6469 33.3657L36.9558 22.8392C37.3996 21.4273 36.6121 19.9174 35.2 19.4736ZM4.7954 24.5047L4.16141 22.4879C3.91141 21.6924 4.35516 20.8417 5.15064 20.5917C5.75822 20.4008 6.24424 20.4792 6.63651 20.8314C6.93049 21.0953 7.09565 21.4525 7.12971 21.5549L7.7637 23.5718L4.7954 24.5047ZM26.445 24.0656C26.445 24.3886 26.1822 24.6515 25.8592 24.6515H25.2731V22.8937H25.8592C26.1822 22.8937 26.445 23.1565 26.445 23.4797V24.0656ZM13.5544 24.0656V23.4797C13.5544 23.1566 13.8172 22.8937 14.1403 22.8937H14.7263V24.6515H14.1403C13.8172 24.6515 13.5544 24.3886 13.5544 24.0656ZM15.8981 25.2375V22.8336C16.6122 22.688 17.2332 22.2828 17.6559 21.72C18.1908 22.4321 19.0424 22.8936 19.9997 22.8936H24.1012V25.2374C24.1012 27.499 22.2612 29.339 19.9996 29.339C17.738 29.3391 15.8981 27.4991 15.8981 25.2375ZM19.9996 33.6194C18.9818 33.6194 18.1527 32.7976 18.14 31.7827L18.2958 30.2269C18.8307 30.4101 19.4034 30.511 19.9996 30.511C20.5958 30.511 21.1686 30.4101 21.7034 30.2269L21.8591 31.7821C21.8469 32.7972 21.0176 33.6194 19.9996 33.6194ZM35.8378 22.4879L35.2038 24.5047L32.2355 23.5717L32.8688 21.5567C32.9034 21.4525 33.0687 21.0953 33.3627 20.8314C33.7548 20.4791 34.2409 20.4006 34.8485 20.5916C35.6442 20.8417 36.0879 21.6923 35.8378 22.4879Z" fill="white"/>
<path d="M22.3438 18.0109H23.5156V19.1827H22.3438V18.0109Z" fill="white"/>
<path d="M20 16.839H21.1719V18.0109H20V16.839Z" fill="white"/>
<path d="M8.54242 15.8581L10.5123 13.3594L13.6712 12.9785L11.9034 10.3329L12.5173 7.21083L9.45492 8.0745L6.67539 6.52606L6.55039 9.70528L4.21875 11.8702L7.20383 12.9715L8.54242 15.8581ZM7.7025 10.2348L7.77156 8.47809L9.30742 9.33372L10.9995 8.85653L10.6603 10.5816L11.637 12.0434L9.89156 12.2539L8.8032 13.6345L8.06359 12.0395L6.41414 11.431L7.7025 10.2348Z" fill="white"/>
<path d="M26.3281 12.9785L29.487 13.3595L31.4568 15.8581L32.7953 12.9715L35.7805 11.8702L33.4488 9.70524L33.3238 6.52594L30.5443 8.07446L27.482 7.21078L28.0958 10.3328L26.3281 12.9785ZM28.9998 8.85649L30.6919 9.33367L32.2277 8.47805L32.2967 10.2348L33.5852 11.431L31.9358 12.0395L31.1962 13.6345L30.1077 12.2539L28.3622 12.0434L29.339 10.5816L28.9998 8.85649Z" fill="white"/>
<mask id="path-6-inside-1_78_6235" fill="white">
<path d="M16.0385 12.1913L19.9997 10.5556L23.9609 12.1913L23.6293 7.91858L26.409 4.65668L22.243 3.65159L19.9997 0L17.7564 3.65159L13.5903 4.65668L16.37 7.91858L16.0385 12.1913ZM15.7196 5.34848L18.5016 4.6773L19.9997 2.23885L21.4977 4.6773L24.2798 5.34848L22.4235 7.52678L22.6449 10.3801L19.9997 9.28781L17.3544 10.3801L17.5758 7.52678L15.7196 5.34848Z"/>
</mask>
<path d="M16.0385 12.1913L19.9997 10.5556L23.9609 12.1913L23.6293 7.91858L26.409 4.65668L22.243 3.65159L19.9997 0L17.7564 3.65159L13.5903 4.65668L16.37 7.91858L16.0385 12.1913ZM15.7196 5.34848L18.5016 4.6773L19.9997 2.23885L21.4977 4.6773L24.2798 5.34848L22.4235 7.52678L22.6449 10.3801L19.9997 9.28781L17.3544 10.3801L17.5758 7.52678L15.7196 5.34848Z" fill="white"/>
<path d="M16.0385 12.1913L6.06844 11.4179L4.80934 27.6473L19.8552 21.4343L16.0385 12.1913ZM19.9997 10.5556L23.8164 1.31266L19.9997 -0.263404L16.1829 1.31266L19.9997 10.5556ZM23.9609 12.1913L20.1441 21.4343L35.1903 27.6474L33.9309 11.4177L23.9609 12.1913ZM23.6293 7.91858L16.0181 1.43249L13.3398 4.57536L13.6593 8.69225L23.6293 7.91858ZM26.409 4.65668L34.0202 11.1428L44.5783 -1.24678L28.7543 -5.06442L26.409 4.65668ZM22.243 3.65159L13.7224 8.88608L15.8838 12.4043L19.8977 13.3727L22.243 3.65159ZM19.9997 0L28.5203 -5.23448L19.9997 -19.1041L11.4791 -5.23448L19.9997 0ZM17.7564 3.65159L20.1017 13.3727L24.1156 12.4043L26.277 8.88608L17.7564 3.65159ZM13.5903 4.65668L11.2451 -5.06442L-4.5787 -1.24684L5.97902 11.1427L13.5903 4.65668ZM16.37 7.91858L26.34 8.69207L26.6594 4.57536L23.9813 1.4326L16.37 7.91858ZM15.7196 5.34848L13.3743 -4.37262L-2.44926 -0.555145L8.10817 11.8344L15.7196 5.34848ZM18.5016 4.6773L20.8469 14.3984L24.8608 13.43L27.0221 9.91186L18.5016 4.6773ZM19.9997 2.23885L28.5202 -2.99572L19.9997 -16.865L11.4792 -2.99572L19.9997 2.23885ZM21.4977 4.6773L12.9772 9.91186L15.1386 13.43L19.1525 14.3984L21.4977 4.6773ZM24.2798 5.34848L31.8911 11.8345L42.449 -0.555057L26.625 -4.37262L24.2798 5.34848ZM22.4235 7.52678L14.8123 1.04075L12.134 4.18359L12.4535 8.30042L22.4235 7.52678ZM22.6449 10.3801L18.8283 19.6231L33.8743 25.8359L32.615 9.60644L22.6449 10.3801ZM19.9997 9.28781L23.8163 0.0447844L19.9997 -1.53116L16.1831 0.0447844L19.9997 9.28781ZM17.3544 10.3801L7.38438 9.60671L6.1255 25.8357L21.171 19.6231L17.3544 10.3801ZM17.5758 7.52678L27.5458 8.30015L27.8651 4.18359L25.1872 1.0409L17.5758 7.52678ZM19.8552 21.4343L23.8164 19.7986L16.1829 1.31266L12.2217 2.94838L19.8552 21.4343ZM16.1829 19.7986L20.1441 21.4343L27.7776 2.94838L23.8164 1.31266L16.1829 19.7986ZM33.9309 11.4177L33.5993 7.14491L13.6593 8.69225L13.9909 12.965L33.9309 11.4177ZM31.2405 14.4047L34.0202 11.1428L18.7978 -1.82941L16.0181 1.43249L31.2405 14.4047ZM28.7543 -5.06442L24.5883 -6.0695L19.8977 13.3727L24.0637 14.3778L28.7543 -5.06442ZM30.7636 -1.58289L28.5203 -5.23448L11.4791 5.23448L13.7224 8.88608L30.7636 -1.58289ZM11.4791 -5.23448L9.23581 -1.58289L26.277 8.88608L28.5203 5.23448L11.4791 -5.23448ZM15.4111 -6.0695L11.2451 -5.06442L15.9356 14.3778L20.1017 13.3727L15.4111 -6.0695ZM5.97902 11.1427L8.75865 14.4046L23.9813 1.4326L21.2016 -1.82931L5.97902 11.1427ZM6.39992 7.14509L6.06844 11.4179L26.0085 12.9648L26.34 8.69207L6.39992 7.14509ZM18.0648 15.0696L20.8469 14.3984L16.1564 -5.0438L13.3743 -4.37262L18.0648 15.0696ZM27.0221 9.91186L28.5202 7.47341L11.4792 -2.99572L9.98109 -0.557259L27.0221 9.91186ZM11.4792 7.47341L12.9772 9.91186L30.0183 -0.557259L28.5202 -2.99572L11.4792 7.47341ZM19.1525 14.3984L21.9346 15.0696L26.625 -4.37262L23.843 -5.0438L19.1525 14.3984ZM16.6685 -1.13755L14.8123 1.04075L30.0348 14.0128L31.8911 11.8345L16.6685 -1.13755ZM12.4535 8.30042L12.6749 11.1537L32.615 9.60644L32.3936 6.75314L12.4535 8.30042ZM26.4615 1.13706L23.8163 0.0447844L16.1831 18.5308L18.8283 19.6231L26.4615 1.13706ZM16.1831 0.0447844L13.5378 1.13706L21.171 19.6231L23.8163 18.5308L16.1831 0.0447844ZM27.3245 11.1535L27.5458 8.30015L7.6057 6.75341L7.38438 9.60671L27.3245 11.1535ZM25.1872 1.0409L23.331 -1.1374L8.10817 11.8344L9.96436 14.0127L25.1872 1.0409Z" fill="white" mask="url(#path-6-inside-1_78_6235)"/>
<path d="M20 1.5L18 4L15 5L17 8V11L20 10L23 11V8L25 5L21.5 4L20 1.5Z" fill="white"/>
</g>
<defs>
<clipPath id="clip0_78_6235">
<rect width="40" height="40" fill="white"/>
</clipPath>
</defs>
</svg>
