<svg width="22" height="21" viewBox="0 0 22 21" fill="none" xmlns="http://www.w3.org/2000/svg">
<path fill-rule="evenodd" clip-rule="evenodd" d="M11.7809 0.70914L14.1205 5.58429C14.3006 5.95956 14.649 6.22003 15.0516 6.27988L20.2834 7.06166C21.2976 7.21335 21.7028 8.49538 20.9689 9.23125L17.1833 13.0261C16.8919 13.3182 16.7587 13.7394 16.8275 14.1519L17.7213 19.5104C17.8944 20.5493 16.8341 21.3416 15.9268 20.8511L11.2473 18.3213C10.8871 18.1267 10.4567 18.1267 10.0962 18.3213L5.4171 20.8511C4.50976 21.3416 3.44942 20.5493 3.62255 19.5104L4.51635 14.1519C4.58516 13.7394 4.45229 13.3182 4.16058 13.0261L0.374928 9.23125C-0.359291 8.49538 0.0458828 7.21335 1.06047 7.06166L6.29223 6.27988C6.69521 6.21966 7.04329 5.95956 7.22337 5.58429L9.56291 0.70914C10.0168 -0.23638 11.3275 -0.23638 11.7809 0.70914Z" fill="#F79A26"/>
</svg>
