<svg width="40" height="40" viewBox="0 0 40 40" fill="none" xmlns="http://www.w3.org/2000/svg">
<circle cx="20" cy="20" r="20" fill="white"/>
<path d="M18.9663 19.1631H21.0335V23.8662H18.9663V19.1631Z" fill="url(#paint0_linear_2004_895)"/>
<path d="M17.665 25.8788C17.665 24.5882 18.7096 23.5327 20.0002 23.5327C21.2908 23.5327 22.3354 24.5882 22.3354 25.8788H17.665Z" fill="url(#paint1_linear_2004_895)"/>
<path d="M16.7188 25.8789H23.2812C23.8828 25.8789 24.375 26.3711 24.375 26.9727V28.8867H15.625V26.9727C15.625 26.3711 16.1172 25.8789 16.7188 25.8789Z" fill="url(#paint2_linear_2004_895)"/>
<path d="M14.9414 28.8867H25.0586C25.8898 28.8867 26.5625 29.5594 26.5625 30.3906C26.5625 31.2219 25.8898 31.8945 25.0586 31.8945H14.9414C14.1102 31.8945 13.4375 31.2219 13.4375 30.3906C13.4375 29.5594 14.1102 28.8867 14.9414 28.8867Z" fill="url(#paint3_linear_2004_895)"/>
<path d="M22.2145 25.4088C22.0778 25.4088 21.9575 25.3049 21.9411 25.1627C21.9247 25.0096 22.0341 24.8783 22.1872 24.8619C22.22 24.8565 24.2489 24.6268 26.1848 23.0846C28.7497 21.0393 30.002 17.5994 29.7942 13.1479C29.7887 12.9947 29.9036 12.869 30.0567 12.8635C30.2044 12.8525 30.3356 12.9729 30.3411 13.126C30.4559 15.7127 30.1114 17.9658 29.3075 19.8252C28.6567 21.3236 27.7161 22.5705 26.502 23.533C24.4348 25.1682 22.3294 25.4033 22.2419 25.4088C22.2364 25.4088 22.2255 25.4088 22.2145 25.4088Z" fill="url(#paint4_linear_2004_895)"/>
<path d="M32.1787 16.3197C31.2162 17.1181 29.8545 17.058 29.8545 17.058C29.8545 17.058 30.0514 15.7072 31.0139 14.9087C31.9764 14.1103 33.3381 14.1705 33.3381 14.1705C33.3381 14.1705 33.1412 15.5212 32.1787 16.3197Z" fill="url(#paint5_linear_2004_895)"/>
<path d="M29.3021 14.679C30.0185 15.7017 29.8489 17.0579 29.8489 17.0579C29.8489 17.0579 28.52 16.7517 27.8036 15.729C27.0872 14.7063 27.2568 13.3501 27.2568 13.3501C27.2568 13.3501 28.5857 13.6563 29.3021 14.679Z" fill="url(#paint6_linear_2004_895)"/>
<path d="M28.5746 17.6376C29.2035 18.7204 28.9191 20.0548 28.9191 20.0548C28.9191 20.0548 27.6175 19.6337 26.9941 18.5563C26.3652 17.4735 26.6496 16.1392 26.6496 16.1392C26.6496 16.1392 27.9511 16.5548 28.5746 17.6376Z" fill="url(#paint7_linear_2004_895)"/>
<path d="M27.3717 20.4157C27.6232 21.6407 26.9287 22.8165 26.9287 22.8165C26.9287 22.8165 25.8295 22.0071 25.5834 20.7821C25.3373 19.5571 26.0263 18.3813 26.0263 18.3813C26.0263 18.3813 27.1201 19.1907 27.3717 20.4157Z" fill="url(#paint8_linear_2004_895)"/>
<path d="M25.4523 22.6195C25.1952 23.8445 24.0905 24.6484 24.0905 24.6484C24.0905 24.6484 23.4015 23.4672 23.6585 22.2477C23.9155 21.0281 25.0202 20.2188 25.0202 20.2188C25.0202 20.2188 25.7093 21.3945 25.4523 22.6195Z" fill="url(#paint9_linear_2004_895)"/>
<path d="M31.2979 19.5297C30.2698 20.2351 28.9136 20.0547 28.9136 20.0547C28.9136 20.0547 29.2308 18.7258 30.2644 18.0203C31.2979 17.3148 32.6487 17.4953 32.6487 17.4953C32.6487 17.4953 32.3315 18.8242 31.2979 19.5297Z" fill="url(#paint10_linear_2004_895)"/>
<path d="M29.3731 22.838C28.2083 23.292 26.9341 22.8107 26.9341 22.8107C26.9341 22.8107 27.5466 21.5912 28.7114 21.1373C29.8763 20.6834 31.1505 21.1646 31.1505 21.1646C31.1505 21.1646 30.538 22.3841 29.3731 22.838Z" fill="url(#paint11_linear_2004_895)"/>
<path d="M26.3271 25.6111C25.0747 25.5783 24.0903 24.6377 24.0903 24.6377C24.0903 24.6377 25.1294 23.7518 26.3763 23.7846C27.6231 23.8174 28.613 24.758 28.613 24.758C28.613 24.758 27.5739 25.644 26.3271 25.6111Z" fill="url(#paint12_linear_2004_895)"/>
<path d="M31.0082 12.475C31.0082 13.7273 30.0949 14.7391 30.0949 14.7391C30.0949 14.7391 29.1816 13.7273 29.1816 12.475C29.1816 11.2227 30.0895 10.2109 30.0895 10.2109C30.0895 10.2109 31.0082 11.2227 31.0082 12.475Z" fill="url(#paint13_linear_2004_895)"/>
<path d="M17.7849 25.4088C17.9217 25.4088 18.042 25.3049 18.0584 25.1627C18.0748 25.0096 17.9654 24.8783 17.8123 24.8619C17.7795 24.8565 15.7506 24.6268 13.8146 23.0846C11.2498 21.0393 9.99743 17.5994 10.2052 13.1479C10.2107 12.9947 10.0959 12.869 9.94275 12.8635C9.79509 12.8525 9.66384 12.9729 9.65837 13.126C9.53806 15.7127 9.88806 17.9658 10.692 19.8252C11.3427 21.3236 12.2834 22.5705 13.4974 23.533C15.5646 25.1682 17.6701 25.4033 17.7576 25.4088H17.7849Z" fill="url(#paint14_linear_2004_895)"/>
<path d="M7.821 16.3197C8.7835 17.1181 10.1507 17.058 10.1507 17.058C10.1507 17.058 9.95381 15.7072 8.99131 14.9087C8.02881 14.1103 6.66162 14.1705 6.66162 14.1705C6.66162 14.1705 6.8585 15.5212 7.821 16.3197Z" fill="url(#paint15_linear_2004_895)"/>
<path d="M10.6977 14.679C9.98126 15.7017 10.1508 17.0579 10.1508 17.0579C10.1508 17.0579 11.4797 16.7517 12.1961 15.729C12.9125 14.7063 12.743 13.3501 12.743 13.3501C12.743 13.3501 11.4141 13.6563 10.6977 14.679Z" fill="url(#paint16_linear_2004_895)"/>
<path d="M11.4248 17.6376C10.8014 18.7204 11.0803 20.0548 11.0803 20.0548C11.0803 20.0548 12.3818 19.6337 13.0053 18.5563C13.6287 17.479 13.3498 16.1392 13.3498 16.1392C13.3498 16.1392 12.0482 16.5548 11.4248 17.6376Z" fill="url(#paint17_linear_2004_895)"/>
<path d="M12.6281 20.4157C12.3766 21.6407 13.0711 22.8165 13.0711 22.8165C13.0711 22.8165 14.1703 22.0071 14.4219 20.7821C14.6735 19.5571 13.9789 18.3813 13.9789 18.3813C13.9789 18.3813 12.8797 19.1907 12.6281 20.4157Z" fill="url(#paint18_linear_2004_895)"/>
<path d="M14.5477 22.6195C14.8047 23.8445 15.9094 24.6484 15.9094 24.6484C15.9094 24.6484 16.5984 23.4672 16.3414 22.2477C16.0844 21.0281 14.9797 20.2188 14.9797 20.2188C14.9797 20.2188 14.2906 21.3945 14.5477 22.6195Z" fill="url(#paint19_linear_2004_895)"/>
<path d="M8.70137 19.5297C9.72949 20.2351 11.0857 20.0547 11.0857 20.0547C11.0857 20.0547 10.7686 18.7258 9.73496 18.0203C8.70137 17.3148 7.35059 17.4953 7.35059 17.4953C7.35059 17.4953 7.66777 18.8242 8.70137 19.5297Z" fill="url(#paint20_linear_2004_895)"/>
<path d="M10.6264 22.838C11.7912 23.292 13.0654 22.8107 13.0654 22.8107C13.0654 22.8107 12.4529 21.5912 11.2936 21.1373C10.1287 20.6834 8.85449 21.1646 8.85449 21.1646C8.85449 21.1646 9.46152 22.3841 10.6264 22.838Z" fill="url(#paint21_linear_2004_895)"/>
<path d="M13.6727 25.6111C14.925 25.5783 15.9094 24.6377 15.9094 24.6377C15.9094 24.6377 14.8703 23.7518 13.6234 23.7846C12.3766 23.8174 11.3867 24.758 11.3867 24.758C11.3867 24.758 12.4258 25.644 13.6727 25.6111Z" fill="url(#paint22_linear_2004_895)"/>
<path d="M8.99121 12.475C8.99121 13.7273 9.90449 14.7391 9.90449 14.7391C9.90449 14.7391 10.8178 13.7273 10.8178 12.475C10.8178 11.2227 9.90449 10.2109 9.90449 10.2109C9.90449 10.2109 8.99121 11.2227 8.99121 12.475Z" fill="url(#paint23_linear_2004_895)"/>
<path d="M21.3561 8.92559L22.603 11.3045L25.2553 11.7529C26.4749 11.9607 26.9616 13.4537 26.0975 14.3342L24.2163 16.2592L24.6046 18.917C24.785 20.142 23.5163 21.0607 22.4061 20.5139L19.9999 19.3271L17.5936 20.5193C16.4835 21.0662 15.2147 20.1475 15.3952 18.9225L15.7835 16.2646L13.9022 14.3396C13.0382 13.4537 13.5249 11.9662 14.7444 11.7584L17.3967 11.31L18.6436 8.93106C19.2178 7.83184 20.7819 7.83184 21.3561 8.92559Z" fill="url(#paint24_linear_2004_895)"/>
<defs>
<linearGradient id="paint0_linear_2004_895" x1="20.0002" y1="23.8648" x2="20.0002" y2="19.1628" gradientUnits="userSpaceOnUse">
<stop stop-color="#FCD34F"/>
<stop offset="1" stop-color="#FF6A00"/>
</linearGradient>
<linearGradient id="paint1_linear_2004_895" x1="20.0002" y1="23.5308" x2="20.0002" y2="25.8791" gradientUnits="userSpaceOnUse">
<stop stop-color="#FCD34F"/>
<stop offset="1" stop-color="#FF6A00"/>
</linearGradient>
<linearGradient id="paint2_linear_2004_895" x1="20" y1="28.887" x2="20" y2="25.8792" gradientUnits="userSpaceOnUse">
<stop stop-color="#3D5969"/>
<stop offset="1" stop-color="#698999"/>
</linearGradient>
<linearGradient id="paint3_linear_2004_895" x1="20" y1="31.8948" x2="20" y2="28.887" gradientUnits="userSpaceOnUse">
<stop stop-color="#FF9900"/>
<stop offset="1" stop-color="#FCD34F"/>
</linearGradient>
<linearGradient id="paint4_linear_2004_895" x1="26.1543" y1="12.8595" x2="26.1543" y2="25.4091" gradientUnits="userSpaceOnUse">
<stop stop-color="#FF9900"/>
<stop offset="1" stop-color="#FCD34F"/>
</linearGradient>
<linearGradient id="paint5_linear_2004_895" x1="31.5843" y1="17.0721" x2="31.5851" y2="14.185" gradientUnits="userSpaceOnUse">
<stop stop-color="#FF9900"/>
<stop offset="1" stop-color="#FCD34F"/>
</linearGradient>
<linearGradient id="paint6_linear_2004_895" x1="28.551" y1="17.0827" x2="28.5517" y2="13.3754" gradientUnits="userSpaceOnUse">
<stop stop-color="#FF9900"/>
<stop offset="1" stop-color="#FCD34F"/>
</linearGradient>
<linearGradient id="paint7_linear_2004_895" x1="27.6986" y1="20.0187" x2="27.8427" y2="16.1935" gradientUnits="userSpaceOnUse">
<stop stop-color="#FF9900"/>
<stop offset="1" stop-color="#FCD34F"/>
</linearGradient>
<linearGradient id="paint8_linear_2004_895" x1="26.4775" y1="22.8036" x2="26.4764" y2="18.367" gradientUnits="userSpaceOnUse">
<stop stop-color="#FF9900"/>
<stop offset="1" stop-color="#FCD34F"/>
</linearGradient>
<linearGradient id="paint9_linear_2004_895" x1="24.5696" y1="24.633" x2="24.5681" y2="20.2017" gradientUnits="userSpaceOnUse">
<stop stop-color="#FF9900"/>
<stop offset="1" stop-color="#FCD34F"/>
</linearGradient>
<linearGradient id="paint10_linear_2004_895" x1="30.7421" y1="20.1217" x2="30.8443" y2="17.4092" gradientUnits="userSpaceOnUse">
<stop stop-color="#FF9900"/>
<stop offset="1" stop-color="#FCD34F"/>
</linearGradient>
<linearGradient id="paint11_linear_2004_895" x1="29.0175" y1="23.0145" x2="29.0181" y2="20.9207" gradientUnits="userSpaceOnUse">
<stop stop-color="#FF9900"/>
<stop offset="1" stop-color="#FCD34F"/>
</linearGradient>
<linearGradient id="paint12_linear_2004_895" x1="26.3597" y1="25.6412" x2="26.3591" y2="23.8106" gradientUnits="userSpaceOnUse">
<stop stop-color="#FF9900"/>
<stop offset="1" stop-color="#FCD34F"/>
</linearGradient>
<linearGradient id="paint13_linear_2004_895" x1="30.0922" y1="14.7371" x2="30.0922" y2="10.2101" gradientUnits="userSpaceOnUse">
<stop stop-color="#FF9900"/>
<stop offset="1" stop-color="#FCD34F"/>
</linearGradient>
<linearGradient id="paint14_linear_2004_895" x1="13.8457" y1="12.8595" x2="13.8457" y2="25.4091" gradientUnits="userSpaceOnUse">
<stop stop-color="#FF9900"/>
<stop offset="1" stop-color="#FCD34F"/>
</linearGradient>
<linearGradient id="paint15_linear_2004_895" x1="8.41554" y1="17.0717" x2="8.41474" y2="14.1847" gradientUnits="userSpaceOnUse">
<stop stop-color="#FF9900"/>
<stop offset="1" stop-color="#FCD34F"/>
</linearGradient>
<linearGradient id="paint16_linear_2004_895" x1="11.4482" y1="17.0825" x2="11.4475" y2="13.3752" gradientUnits="userSpaceOnUse">
<stop stop-color="#FF9900"/>
<stop offset="1" stop-color="#FCD34F"/>
</linearGradient>
<linearGradient id="paint17_linear_2004_895" x1="12.3008" y1="20.0189" x2="12.1568" y2="16.1937" gradientUnits="userSpaceOnUse">
<stop stop-color="#FF9900"/>
<stop offset="1" stop-color="#FCD34F"/>
</linearGradient>
<linearGradient id="paint18_linear_2004_895" x1="13.5231" y1="22.8039" x2="13.5242" y2="18.3673" gradientUnits="userSpaceOnUse">
<stop stop-color="#FF9900"/>
<stop offset="1" stop-color="#FCD34F"/>
</linearGradient>
<linearGradient id="paint19_linear_2004_895" x1="15.4311" y1="24.6336" x2="15.4326" y2="20.2022" gradientUnits="userSpaceOnUse">
<stop stop-color="#FF9900"/>
<stop offset="1" stop-color="#FCD34F"/>
</linearGradient>
<linearGradient id="paint20_linear_2004_895" x1="9.25709" y1="20.122" x2="9.15489" y2="17.4095" gradientUnits="userSpaceOnUse">
<stop stop-color="#FF9900"/>
<stop offset="1" stop-color="#FCD34F"/>
</linearGradient>
<linearGradient id="paint21_linear_2004_895" x1="10.9822" y1="23.0141" x2="10.9814" y2="20.9203" gradientUnits="userSpaceOnUse">
<stop stop-color="#FF9900"/>
<stop offset="1" stop-color="#FCD34F"/>
</linearGradient>
<linearGradient id="paint22_linear_2004_895" x1="13.6405" y1="25.6414" x2="13.641" y2="23.8108" gradientUnits="userSpaceOnUse">
<stop stop-color="#FF9900"/>
<stop offset="1" stop-color="#FCD34F"/>
</linearGradient>
<linearGradient id="paint23_linear_2004_895" x1="9.90723" y1="14.7371" x2="9.90723" y2="10.2101" gradientUnits="userSpaceOnUse">
<stop stop-color="#FF9900"/>
<stop offset="1" stop-color="#FCD34F"/>
</linearGradient>
<linearGradient id="paint24_linear_2004_895" x1="19.9997" y1="20.6825" x2="19.9997" y2="8.10484" gradientUnits="userSpaceOnUse">
<stop stop-color="#FF9900"/>
<stop offset="0.11" stop-color="#FFA200"/>
<stop offset="0.37" stop-color="#FFB300"/>
<stop offset="0.65" stop-color="#FFBD00"/>
<stop offset="1" stop-color="#FFC100"/>
</linearGradient>
</defs>
</svg>
