<svg width="28" height="24" viewBox="0 0 28 24" fill="none" xmlns="http://www.w3.org/2000/svg">
<path d="M12.9663 11.1631H15.0335V15.8662H12.9663V11.1631Z" fill="url(#paint0_linear_132_5298)"/>
<path d="M11.665 17.8788C11.665 16.5882 12.7096 15.5327 14.0002 15.5327C15.2908 15.5327 16.3354 16.5882 16.3354 17.8788H11.665Z" fill="url(#paint1_linear_132_5298)"/>
<path d="M10.7188 17.8789H17.2812C17.8828 17.8789 18.375 18.3711 18.375 18.9727V20.8867H9.625V18.9727C9.625 18.3711 10.1172 17.8789 10.7188 17.8789Z" fill="url(#paint2_linear_132_5298)"/>
<path d="M8.94141 20.8867H19.0586C19.8898 20.8867 20.5625 21.5594 20.5625 22.3906C20.5625 23.2219 19.8898 23.8945 19.0586 23.8945H8.94141C8.11016 23.8945 7.4375 23.2219 7.4375 22.3906C7.4375 21.5594 8.11016 20.8867 8.94141 20.8867Z" fill="url(#paint3_linear_132_5298)"/>
<path d="M16.2145 17.4088C16.0778 17.4088 15.9575 17.3049 15.9411 17.1627C15.9247 17.0096 16.0341 16.8783 16.1872 16.8619C16.22 16.8565 18.2489 16.6268 20.1848 15.0846C22.7497 13.0393 24.002 9.59942 23.7942 5.14786C23.7887 4.99473 23.9036 4.86895 24.0567 4.86348C24.2044 4.85255 24.3356 4.97286 24.3411 5.12598C24.4559 7.7127 24.1114 9.96583 23.3075 11.8252C22.6567 13.3236 21.7161 14.5705 20.502 15.533C18.4348 17.1682 16.3294 17.4033 16.2419 17.4088C16.2364 17.4088 16.2255 17.4088 16.2145 17.4088Z" fill="url(#paint4_linear_132_5298)"/>
<path d="M26.1787 8.31968C25.2162 9.11812 23.8545 9.05797 23.8545 9.05797C23.8545 9.05797 24.0514 7.70718 25.0139 6.90875C25.9764 6.11031 27.3381 6.17047 27.3381 6.17047C27.3381 6.17047 27.1412 7.52125 26.1787 8.31968Z" fill="url(#paint5_linear_132_5298)"/>
<path d="M23.3021 6.679C24.0185 7.70166 23.8489 9.05791 23.8489 9.05791C23.8489 9.05791 22.52 8.75166 21.8036 7.729C21.0872 6.70635 21.2568 5.3501 21.2568 5.3501C21.2568 5.3501 22.5857 5.65635 23.3021 6.679Z" fill="url(#paint6_linear_132_5298)"/>
<path d="M22.5746 9.6376C23.2035 10.7204 22.9191 12.0548 22.9191 12.0548C22.9191 12.0548 21.6175 11.6337 20.9941 10.5563C20.3652 9.47354 20.6496 8.13916 20.6496 8.13916C20.6496 8.13916 21.9511 8.55479 22.5746 9.6376Z" fill="url(#paint7_linear_132_5298)"/>
<path d="M21.3717 12.4157C21.6232 13.6407 20.9287 14.8165 20.9287 14.8165C20.9287 14.8165 19.8295 14.0071 19.5834 12.7821C19.3373 11.5571 20.0263 10.3813 20.0263 10.3813C20.0263 10.3813 21.1201 11.1907 21.3717 12.4157Z" fill="url(#paint8_linear_132_5298)"/>
<path d="M19.4523 14.6195C19.1952 15.8445 18.0905 16.6484 18.0905 16.6484C18.0905 16.6484 17.4015 15.4672 17.6585 14.2477C17.9155 13.0281 19.0202 12.2188 19.0202 12.2188C19.0202 12.2188 19.7093 13.3945 19.4523 14.6195Z" fill="url(#paint9_linear_132_5298)"/>
<path d="M25.2979 11.5297C24.2698 12.2351 22.9136 12.0547 22.9136 12.0547C22.9136 12.0547 23.2308 10.7258 24.2644 10.0203C25.2979 9.31481 26.6487 9.49528 26.6487 9.49528C26.6487 9.49528 26.3315 10.8242 25.2979 11.5297Z" fill="url(#paint10_linear_132_5298)"/>
<path d="M23.3731 14.838C22.2083 15.292 20.9341 14.8107 20.9341 14.8107C20.9341 14.8107 21.5466 13.5912 22.7114 13.1373C23.8763 12.6834 25.1505 13.1646 25.1505 13.1646C25.1505 13.1646 24.538 14.3841 23.3731 14.838Z" fill="url(#paint11_linear_132_5298)"/>
<path d="M20.3271 17.6111C19.0747 17.5783 18.0903 16.6377 18.0903 16.6377C18.0903 16.6377 19.1294 15.7518 20.3763 15.7846C21.6231 15.8174 22.613 16.758 22.613 16.758C22.613 16.758 21.5739 17.644 20.3271 17.6111Z" fill="url(#paint12_linear_132_5298)"/>
<path d="M25.0082 4.475C25.0082 5.72734 24.0949 6.73906 24.0949 6.73906C24.0949 6.73906 23.1816 5.72734 23.1816 4.475C23.1816 3.22266 24.0895 2.21094 24.0895 2.21094C24.0895 2.21094 25.0082 3.22266 25.0082 4.475Z" fill="url(#paint13_linear_132_5298)"/>
<path d="M11.7849 17.4088C11.9217 17.4088 12.042 17.3049 12.0584 17.1627C12.0748 17.0096 11.9654 16.8783 11.8123 16.8619C11.7795 16.8565 9.75056 16.6268 7.81462 15.0846C5.24978 13.0393 3.99743 9.59942 4.20525 5.14786C4.21072 4.99473 4.09587 4.86895 3.94275 4.86348C3.79509 4.85255 3.66384 4.97286 3.65837 5.12598C3.53806 7.7127 3.88806 9.96583 4.69197 11.8252C5.34275 13.3236 6.28337 14.5705 7.49743 15.533C9.56462 17.1682 11.6701 17.4033 11.7576 17.4088H11.7849Z" fill="url(#paint14_linear_132_5298)"/>
<path d="M1.821 8.31968C2.7835 9.11812 4.15068 9.05797 4.15068 9.05797C4.15068 9.05797 3.95381 7.70718 2.99131 6.90875C2.02881 6.11031 0.661621 6.17047 0.661621 6.17047C0.661621 6.17047 0.858496 7.52125 1.821 8.31968Z" fill="url(#paint15_linear_132_5298)"/>
<path d="M4.69767 6.679C3.98126 7.70166 4.1508 9.05791 4.1508 9.05791C4.1508 9.05791 5.4797 8.75166 6.19611 7.729C6.91251 6.70635 6.74298 5.3501 6.74298 5.3501C6.74298 5.3501 5.41408 5.65635 4.69767 6.679Z" fill="url(#paint16_linear_132_5298)"/>
<path d="M5.42479 9.6376C4.80135 10.7204 5.08026 12.0548 5.08026 12.0548C5.08026 12.0548 6.38182 11.6337 7.00526 10.5563C7.6287 9.479 7.34979 8.13916 7.34979 8.13916C7.34979 8.13916 6.04823 8.55479 5.42479 9.6376Z" fill="url(#paint17_linear_132_5298)"/>
<path d="M6.62814 12.4157C6.37658 13.6407 7.07111 14.8165 7.07111 14.8165C7.07111 14.8165 8.17033 14.0071 8.42189 12.7821C8.67346 11.5571 7.97893 10.3813 7.97893 10.3813C7.97893 10.3813 6.87971 11.1907 6.62814 12.4157Z" fill="url(#paint18_linear_132_5298)"/>
<path d="M8.54766 14.6195C8.80469 15.8445 9.90938 16.6484 9.90938 16.6484C9.90938 16.6484 10.5984 15.4672 10.3414 14.2477C10.0844 13.0281 8.97969 12.2188 8.97969 12.2188C8.97969 12.2188 8.29063 13.3945 8.54766 14.6195Z" fill="url(#paint19_linear_132_5298)"/>
<path d="M2.70137 11.5297C3.72949 12.2351 5.08574 12.0547 5.08574 12.0547C5.08574 12.0547 4.76855 10.7258 3.73496 10.0203C2.70137 9.31481 1.35059 9.49528 1.35059 9.49528C1.35059 9.49528 1.66777 10.8242 2.70137 11.5297Z" fill="url(#paint20_linear_132_5298)"/>
<path d="M4.62637 14.838C5.79121 15.292 7.06543 14.8107 7.06543 14.8107C7.06543 14.8107 6.45293 13.5912 5.29355 13.1373C4.12871 12.6834 2.85449 13.1646 2.85449 13.1646C2.85449 13.1646 3.46152 14.3841 4.62637 14.838Z" fill="url(#paint21_linear_132_5298)"/>
<path d="M7.67266 17.6111C8.925 17.5783 9.90938 16.6377 9.90938 16.6377C9.90938 16.6377 8.87031 15.7518 7.62344 15.7846C6.37656 15.8174 5.38672 16.758 5.38672 16.758C5.38672 16.758 6.42578 17.644 7.67266 17.6111Z" fill="url(#paint22_linear_132_5298)"/>
<path d="M2.99121 4.475C2.99121 5.72734 3.90449 6.73906 3.90449 6.73906C3.90449 6.73906 4.81777 5.72734 4.81777 4.475C4.81777 3.22266 3.90449 2.21094 3.90449 2.21094C3.90449 2.21094 2.99121 3.22266 2.99121 4.475Z" fill="url(#paint23_linear_132_5298)"/>
<path d="M15.3561 0.925587L16.603 3.30449L19.2553 3.75293C20.4749 3.96074 20.9616 5.45371 20.0975 6.33418L18.2163 8.25918L18.6046 10.917C18.785 12.142 17.5163 13.0607 16.4061 12.5139L13.9999 11.3271L11.5936 12.5193C10.4835 13.0662 9.21471 12.1475 9.39518 10.9225L9.78346 8.26465L7.90221 6.33965C7.03815 5.45371 7.52487 3.96621 8.7444 3.7584L11.3967 3.30996L12.6436 0.931056C13.2178 -0.168163 14.7819 -0.168163 15.3561 0.925587Z" fill="url(#paint24_linear_132_5298)"/>
<defs>
<linearGradient id="paint0_linear_132_5298" x1="14.0002" y1="15.8648" x2="14.0002" y2="11.1628" gradientUnits="userSpaceOnUse">
<stop stop-color="#FCD34F"/>
<stop offset="1" stop-color="#FF6A00"/>
</linearGradient>
<linearGradient id="paint1_linear_132_5298" x1="14.0002" y1="15.5308" x2="14.0002" y2="17.8791" gradientUnits="userSpaceOnUse">
<stop stop-color="#FCD34F"/>
<stop offset="1" stop-color="#FF6A00"/>
</linearGradient>
<linearGradient id="paint2_linear_132_5298" x1="14" y1="20.887" x2="14" y2="17.8792" gradientUnits="userSpaceOnUse">
<stop stop-color="#3D5969"/>
<stop offset="1" stop-color="#698999"/>
</linearGradient>
<linearGradient id="paint3_linear_132_5298" x1="14" y1="23.8948" x2="14" y2="20.887" gradientUnits="userSpaceOnUse">
<stop stop-color="#FF9900"/>
<stop offset="1" stop-color="#FCD34F"/>
</linearGradient>
<linearGradient id="paint4_linear_132_5298" x1="20.1543" y1="4.85955" x2="20.1543" y2="17.4091" gradientUnits="userSpaceOnUse">
<stop stop-color="#FF9900"/>
<stop offset="1" stop-color="#FCD34F"/>
</linearGradient>
<linearGradient id="paint5_linear_132_5298" x1="25.5843" y1="9.07209" x2="25.5851" y2="6.18502" gradientUnits="userSpaceOnUse">
<stop stop-color="#FF9900"/>
<stop offset="1" stop-color="#FCD34F"/>
</linearGradient>
<linearGradient id="paint6_linear_132_5298" x1="22.551" y1="9.08273" x2="22.5517" y2="5.37542" gradientUnits="userSpaceOnUse">
<stop stop-color="#FF9900"/>
<stop offset="1" stop-color="#FCD34F"/>
</linearGradient>
<linearGradient id="paint7_linear_132_5298" x1="21.6986" y1="12.0187" x2="21.8427" y2="8.19352" gradientUnits="userSpaceOnUse">
<stop stop-color="#FF9900"/>
<stop offset="1" stop-color="#FCD34F"/>
</linearGradient>
<linearGradient id="paint8_linear_132_5298" x1="20.4775" y1="14.8036" x2="20.4764" y2="10.367" gradientUnits="userSpaceOnUse">
<stop stop-color="#FF9900"/>
<stop offset="1" stop-color="#FCD34F"/>
</linearGradient>
<linearGradient id="paint9_linear_132_5298" x1="18.5696" y1="16.633" x2="18.5681" y2="12.2017" gradientUnits="userSpaceOnUse">
<stop stop-color="#FF9900"/>
<stop offset="1" stop-color="#FCD34F"/>
</linearGradient>
<linearGradient id="paint10_linear_132_5298" x1="24.7421" y1="12.1217" x2="24.8443" y2="9.4092" gradientUnits="userSpaceOnUse">
<stop stop-color="#FF9900"/>
<stop offset="1" stop-color="#FCD34F"/>
</linearGradient>
<linearGradient id="paint11_linear_132_5298" x1="23.0175" y1="15.0145" x2="23.0181" y2="12.9207" gradientUnits="userSpaceOnUse">
<stop stop-color="#FF9900"/>
<stop offset="1" stop-color="#FCD34F"/>
</linearGradient>
<linearGradient id="paint12_linear_132_5298" x1="20.3597" y1="17.6412" x2="20.3591" y2="15.8106" gradientUnits="userSpaceOnUse">
<stop stop-color="#FF9900"/>
<stop offset="1" stop-color="#FCD34F"/>
</linearGradient>
<linearGradient id="paint13_linear_132_5298" x1="24.0922" y1="6.73715" x2="24.0922" y2="2.21012" gradientUnits="userSpaceOnUse">
<stop stop-color="#FF9900"/>
<stop offset="1" stop-color="#FCD34F"/>
</linearGradient>
<linearGradient id="paint14_linear_132_5298" x1="7.84574" y1="4.85955" x2="7.84574" y2="17.4091" gradientUnits="userSpaceOnUse">
<stop stop-color="#FF9900"/>
<stop offset="1" stop-color="#FCD34F"/>
</linearGradient>
<linearGradient id="paint15_linear_132_5298" x1="2.41554" y1="9.07173" x2="2.41474" y2="6.18465" gradientUnits="userSpaceOnUse">
<stop stop-color="#FF9900"/>
<stop offset="1" stop-color="#FCD34F"/>
</linearGradient>
<linearGradient id="paint16_linear_132_5298" x1="5.4482" y1="9.08247" x2="5.44748" y2="5.3752" gradientUnits="userSpaceOnUse">
<stop stop-color="#FF9900"/>
<stop offset="1" stop-color="#FCD34F"/>
</linearGradient>
<linearGradient id="paint17_linear_132_5298" x1="6.3008" y1="12.0189" x2="6.1568" y2="8.19374" gradientUnits="userSpaceOnUse">
<stop stop-color="#FF9900"/>
<stop offset="1" stop-color="#FCD34F"/>
</linearGradient>
<linearGradient id="paint18_linear_132_5298" x1="7.52307" y1="14.8039" x2="7.52416" y2="10.3673" gradientUnits="userSpaceOnUse">
<stop stop-color="#FF9900"/>
<stop offset="1" stop-color="#FCD34F"/>
</linearGradient>
<linearGradient id="paint19_linear_132_5298" x1="9.43114" y1="16.6336" x2="9.43262" y2="12.2022" gradientUnits="userSpaceOnUse">
<stop stop-color="#FF9900"/>
<stop offset="1" stop-color="#FCD34F"/>
</linearGradient>
<linearGradient id="paint20_linear_132_5298" x1="3.25709" y1="12.122" x2="3.15489" y2="9.40948" gradientUnits="userSpaceOnUse">
<stop stop-color="#FF9900"/>
<stop offset="1" stop-color="#FCD34F"/>
</linearGradient>
<linearGradient id="paint21_linear_132_5298" x1="4.98217" y1="15.0141" x2="4.98144" y2="12.9203" gradientUnits="userSpaceOnUse">
<stop stop-color="#FF9900"/>
<stop offset="1" stop-color="#FCD34F"/>
</linearGradient>
<linearGradient id="paint22_linear_132_5298" x1="7.64047" y1="17.6414" x2="7.64103" y2="15.8108" gradientUnits="userSpaceOnUse">
<stop stop-color="#FF9900"/>
<stop offset="1" stop-color="#FCD34F"/>
</linearGradient>
<linearGradient id="paint23_linear_132_5298" x1="3.90723" y1="6.73715" x2="3.90723" y2="2.21012" gradientUnits="userSpaceOnUse">
<stop stop-color="#FF9900"/>
<stop offset="1" stop-color="#FCD34F"/>
</linearGradient>
<linearGradient id="paint24_linear_132_5298" x1="13.9997" y1="12.6825" x2="13.9997" y2="0.104837" gradientUnits="userSpaceOnUse">
<stop stop-color="#FF9900"/>
<stop offset="0.11" stop-color="#FFA200"/>
<stop offset="0.37" stop-color="#FFB300"/>
<stop offset="0.65" stop-color="#FFBD00"/>
<stop offset="1" stop-color="#FFC100"/>
</linearGradient>
</defs>
</svg>
